<svg width="728" height="103" viewBox="0 0 728 103" fill="none" xmlns="http://www.w3.org/2000/svg">
<path d="M94.4961 30.1467H73.6221L76.0864 20.9497H55.2124L38.9098 81.7917H59.7839L62.2482 72.5946L65.2244 61.4874H54.1648L59.5864 41.2539H91.52L88.8471 51.2292L86.0984 61.4874L83.1222 72.5946L82.5915 74.5755L80.2029 83.4896L60.2949 102.025H12.6143L35.4189 16.9171L27.2355 0.716155H88.3195L97.4154 19.2517L94.4961 30.1467ZM99.1133 102.025L89.9278 83.2773L104.164 30.1467H153.09L162.275 48.8945L148.039 102.025H99.1133ZM132.424 81.5794L138.528 58.7991L140.708 50.6632H119.76L111.476 81.5794H132.424ZM157.707 102.025L176.967 30.1467H225.893L235.078 48.8945L220.842 102.025H199.821L213.51 50.6632H192.563L178.801 102.025H157.707ZM230.51 102.025L244.746 48.8945L263.979 30.1467H312.904L307.407 50.6632H265.366L257.063 81.6502H299.104L278.264 102.025H230.51ZM303.331 101.954L317.568 48.8238L336.8 30.076H385.726L383.906 36.8676H383.979L379.98 51.7951L347.39 81.5794H371.926L351.085 101.954H303.331ZM332.501 71.8164L355.766 50.5925H338.188L332.501 71.8164ZM376.262 102.025L395.522 30.1467H444.447L453.633 48.8945L451.87 55.474H430.776L432.065 50.6632H411.118L397.355 102.025H376.262ZM449.064 102.025L468.324 30.1467H559.364L568.55 48.8945L554.313 102.025H533.22L546.982 50.6632H525.962L512.199 102.025H491.179L495.425 86.178L504.868 50.6632H483.921L470.158 102.025H449.064ZM578.264 102.025L569.078 83.2773L583.314 30.1467H632.24L641.426 48.8945L627.189 102.025H578.264ZM611.574 81.5794L617.678 58.7991L619.858 50.6632H598.911L590.627 81.5794H611.574ZM636.857 102.025L656.117 30.1467H705.043L714.229 48.8945L712.466 55.474H691.372L692.661 50.6632H671.714L657.951 102.025H636.857Z" fill="white"/>
</svg>
